<svg xmlns="http://www.w3.org/2000/svg" xmlns:xlink="http://www.w3.org/1999/xlink" width="500" zoomAndPan="magnify" viewBox="0 0 375 374.999991" height="500" preserveAspectRatio="xMidYMid meet" version="1.0"><defs><clipPath id="df62b90d3d"><path d="M 2.402344 0 L 372.597656 0 L 372.597656 375 L 2.402344 375 Z M 2.402344 0 " clip-rule="nonzero"/></clipPath><clipPath id="464cd2e1ae"><path d="M 19.652344 0 L 355.347656 0 C 364.875 0 372.597656 7.722656 372.597656 17.25 L 372.597656 357.75 C 372.597656 367.277344 364.875 375 355.347656 375 L 19.652344 375 C 10.125 375 2.402344 367.277344 2.402344 357.75 L 2.402344 17.25 C 2.402344 7.722656 10.125 0 19.652344 0 Z M 19.652344 0 " clip-rule="nonzero"/></clipPath><clipPath id="b5caf81be3"><path d="M 62.414062 21 L 289 21 L 289 354 L 62.414062 354 Z M 62.414062 21 " clip-rule="nonzero"/></clipPath></defs><rect x="-37.5" width="450" fill="#ffffff" y="-37.499999" height="449.999989" fill-opacity="1"/><rect x="-37.5" width="450" fill="#ffffff" y="-37.499999" height="449.999989" fill-opacity="1"/><g clip-path="url(#df62b90d3d)"><g clip-path="url(#464cd2e1ae)"><path fill="#f4f4f4" d="M 2.402344 0 L 372.597656 0 L 372.597656 374.535156 L 2.402344 374.535156 Z M 2.402344 0 " fill-opacity="1" fill-rule="nonzero"/></g></g><g clip-path="url(#b5caf81be3)"><path fill="#8c52ff" d="M 62.089844 190.183594 L 219.851562 30.808594 C 250.328125 0.0234375 312.90625 56.96875 276.199219 92.789062 L 176.386719 190.183594 L 279.417969 285.96875 C 310.792969 315.136719 252.675781 374.996094 221.464844 344.730469 Z M 62.089844 190.183594 " fill-opacity="1" fill-rule="nonzero"/></g></svg>