<svg xmlns="http://www.w3.org/2000/svg" xmlns:xlink="http://www.w3.org/1999/xlink" width="500" zoomAndPan="magnify" viewBox="0 0 375 374.999991" height="500" preserveAspectRatio="xMidYMid meet" version="1.0"><defs><clipPath id="3139de3a34"><path d="M 2.402344 0 L 372.597656 0 L 372.597656 375 L 2.402344 375 Z M 2.402344 0 " clip-rule="nonzero"/></clipPath><clipPath id="611ad4eea7"><path d="M 19.652344 0 L 355.347656 0 C 364.875 0 372.597656 7.722656 372.597656 17.25 L 372.597656 357.75 C 372.597656 367.277344 364.875 375 355.347656 375 L 19.652344 375 C 10.125 375 2.402344 367.277344 2.402344 357.75 L 2.402344 17.25 C 2.402344 7.722656 10.125 0 19.652344 0 Z M 19.652344 0 " clip-rule="nonzero"/></clipPath><clipPath id="e6d3a3f81a"><path d="M 21 62.414062 L 354 62.414062 L 354 289 L 21 289 Z M 21 62.414062 " clip-rule="nonzero"/></clipPath></defs><rect x="-37.5" width="450" fill="#ffffff" y="-37.499999" height="449.999989" fill-opacity="1"/><rect x="-37.5" width="450" fill="#ffffff" y="-37.499999" height="449.999989" fill-opacity="1"/><g clip-path="url(#3139de3a34)"><g clip-path="url(#611ad4eea7)"><path fill="#f4f4f4" d="M 2.402344 0 L 372.597656 0 L 372.597656 374.535156 L 2.402344 374.535156 Z M 2.402344 0 " fill-opacity="1" fill-rule="nonzero"/></g></g><g clip-path="url(#e6d3a3f81a)"><path fill="#8c52ff" d="M 184.816406 62.089844 L 344.191406 219.855469 C 374.976562 250.328125 318.03125 312.910156 282.210938 276.199219 L 184.816406 176.390625 L 89.027344 279.417969 C 59.863281 310.792969 0.00390625 252.679688 30.269531 221.464844 Z M 184.816406 62.089844 " fill-opacity="1" fill-rule="nonzero"/></g></svg>