<svg xmlns="http://www.w3.org/2000/svg" xmlns:xlink="http://www.w3.org/1999/xlink" width="500" zoomAndPan="magnify" viewBox="0 0 375 374.999991" height="500" preserveAspectRatio="xMidYMid meet" version="1.0"><defs><clipPath id="7e4824c1e3"><path d="M 2.402344 0 L 372.597656 0 L 372.597656 375 L 2.402344 375 Z M 2.402344 0 " clip-rule="nonzero"/></clipPath><clipPath id="3605828b97"><path d="M 19.652344 0 L 355.347656 0 C 364.875 0 372.597656 7.722656 372.597656 17.25 L 372.597656 357.75 C 372.597656 367.277344 364.875 375 355.347656 375 L 19.652344 375 C 10.125 375 2.402344 367.277344 2.402344 357.75 L 2.402344 17.25 C 2.402344 7.722656 10.125 0 19.652344 0 Z M 19.652344 0 " clip-rule="nonzero"/></clipPath><clipPath id="2934b01338"><path d="M 102.769531 41.429688 L 289.519531 41.429688 L 289.519531 337.679688 L 102.769531 337.679688 Z M 102.769531 41.429688 " clip-rule="nonzero"/></clipPath></defs><rect x="-37.5" width="450" fill="#ffffff" y="-37.499999" height="449.999989" fill-opacity="1"/><rect x="-37.5" width="450" fill="#ffffff" y="-37.499999" height="449.999989" fill-opacity="1"/><g clip-path="url(#7e4824c1e3)"><g clip-path="url(#3605828b97)"><path fill="#f4f4f4" d="M 2.402344 0 L 372.597656 0 L 372.597656 374.535156 L 2.402344 374.535156 Z M 2.402344 0 " fill-opacity="1" fill-rule="nonzero"/></g></g><g clip-path="url(#2934b01338)"><path fill="#8c52ff" d="M 196.160156 41.429688 L 102.84375 189.460938 L 196.160156 337.492188 L 289.480469 189.460938 Z M 196.160156 41.429688 " fill-opacity="1" fill-rule="nonzero"/></g></svg>