<svg xmlns="http://www.w3.org/2000/svg" xmlns:xlink="http://www.w3.org/1999/xlink" width="500" zoomAndPan="magnify" viewBox="0 0 375 374.999991" height="500" preserveAspectRatio="xMidYMid meet" version="1.0"><defs><clipPath id="fc932c0d98"><path d="M 2.402344 0 L 372.597656 0 L 372.597656 375 L 2.402344 375 Z M 2.402344 0 " clip-rule="nonzero"/></clipPath><clipPath id="ef1e96ae5f"><path d="M 19.652344 0 L 355.347656 0 C 364.875 0 372.597656 7.722656 372.597656 17.25 L 372.597656 357.75 C 372.597656 367.277344 364.875 375 355.347656 375 L 19.652344 375 C 10.125 375 2.402344 367.277344 2.402344 357.75 L 2.402344 17.25 C 2.402344 7.722656 10.125 0 19.652344 0 Z M 19.652344 0 " clip-rule="nonzero"/></clipPath><clipPath id="230140381d"><path d="M 44.011719 96.800781 L 330.980469 96.800781 L 330.980469 278.195312 L 44.011719 278.195312 Z M 44.011719 96.800781 " clip-rule="nonzero"/></clipPath></defs><rect x="-37.5" width="450" fill="#ffffff" y="-37.499999" height="449.999989" fill-opacity="1"/><rect x="-37.5" width="450" fill="#ffffff" y="-37.499999" height="449.999989" fill-opacity="1"/><g clip-path="url(#fc932c0d98)"><g clip-path="url(#ef1e96ae5f)"><path fill="#f4f4f4" d="M 2.402344 0 L 372.597656 0 L 372.597656 374.535156 L 2.402344 374.535156 Z M 2.402344 0 " fill-opacity="1" fill-rule="nonzero"/></g></g><g clip-path="url(#230140381d)"><path fill="#8c52ff" d="M 331.261719 187.5 L 187.496094 96.871094 L 43.730469 187.5 L 187.496094 278.128906 Z M 331.261719 187.5 " fill-opacity="1" fill-rule="nonzero"/></g></svg>