<svg xmlns="http://www.w3.org/2000/svg" xmlns:xlink="http://www.w3.org/1999/xlink" width="500" zoomAndPan="magnify" viewBox="0 0 375 374.999991" height="500" preserveAspectRatio="xMidYMid meet" version="1.0"><defs><clipPath id="0126a94eff"><path d="M 2.402344 0 L 372.597656 0 L 372.597656 375 L 2.402344 375 Z M 2.402344 0 " clip-rule="nonzero"/></clipPath><clipPath id="9ab55b0571"><path d="M 19.652344 0 L 355.347656 0 C 364.875 0 372.597656 7.722656 372.597656 17.25 L 372.597656 357.75 C 372.597656 367.277344 364.875 375 355.347656 375 L 19.652344 375 C 10.125 375 2.402344 367.277344 2.402344 357.75 L 2.402344 17.25 C 2.402344 7.722656 10.125 0 19.652344 0 Z M 19.652344 0 " clip-rule="nonzero"/></clipPath><clipPath id="8b96c14bfc"><path d="M 76.554688 104.191406 L 298.554688 104.191406 L 298.554688 270.691406 L 76.554688 270.691406 Z M 76.554688 104.191406 " clip-rule="nonzero"/></clipPath></defs><rect x="-37.5" width="450" fill="#ffffff" y="-37.499999" height="449.999989" fill-opacity="1"/><rect x="-37.5" width="450" fill="#ffffff" y="-37.499999" height="449.999989" fill-opacity="1"/><g clip-path="url(#0126a94eff)"><g clip-path="url(#9ab55b0571)"><path fill="#f4f4f4" d="M 2.402344 0 L 372.597656 0 L 372.597656 374.535156 L 2.402344 374.535156 Z M 2.402344 0 " fill-opacity="1" fill-rule="nonzero"/></g></g><path fill="#8c52ff" d="M 82.101562 109.839844 L 293.585938 109.839844 L 293.585938 265.851562 L 82.101562 265.851562 Z M 82.101562 109.839844 " fill-opacity="1" fill-rule="nonzero"/><g clip-path="url(#8b96c14bfc)"><path fill="#8c52ff" d="M 293.585938 270.707031 L 82.101562 270.707031 C 78.636719 270.707031 76.554688 268.625 76.554688 265.851562 L 76.554688 109.839844 C 76.554688 106.375 78.636719 104.292969 82.101562 104.292969 L 293.585938 104.292969 C 296.359375 104.292969 298.4375 106.375 298.4375 109.839844 L 298.4375 265.851562 C 298.4375 268.625 296.359375 270.707031 293.585938 270.707031 Z M 86.957031 260.304688 L 288.039062 260.304688 L 288.039062 114.695312 L 86.957031 114.695312 Z M 86.957031 260.304688 " fill-opacity="1" fill-rule="nonzero"/></g></svg>