<svg xmlns="http://www.w3.org/2000/svg" xmlns:xlink="http://www.w3.org/1999/xlink" width="500" zoomAndPan="magnify" viewBox="0 0 375 374.999991" height="500" preserveAspectRatio="xMidYMid meet" version="1.0"><defs><clipPath id="b8cd759672"><path d="M 2.402344 0 L 372.597656 0 L 372.597656 375 L 2.402344 375 Z M 2.402344 0 " clip-rule="nonzero"/></clipPath><clipPath id="ab241614d3"><path d="M 19.652344 0 L 355.347656 0 C 364.875 0 372.597656 7.722656 372.597656 17.25 L 372.597656 357.75 C 372.597656 367.277344 364.875 375 355.347656 375 L 19.652344 375 C 10.125 375 2.402344 367.277344 2.402344 357.75 L 2.402344 17.25 C 2.402344 7.722656 10.125 0 19.652344 0 Z M 19.652344 0 " clip-rule="nonzero"/></clipPath><clipPath id="e669de834f"><path d="M 99.578125 70.582031 L 275.078125 70.582031 L 275.078125 304.582031 L 99.578125 304.582031 Z M 99.578125 70.582031 " clip-rule="nonzero"/></clipPath></defs><rect x="-37.5" width="450" fill="#ffffff" y="-37.499999" height="449.999989" fill-opacity="1"/><rect x="-37.5" width="450" fill="#ffffff" y="-37.499999" height="449.999989" fill-opacity="1"/><g clip-path="url(#b8cd759672)"><g clip-path="url(#ab241614d3)"><path fill="#f4f4f4" d="M 2.402344 0 L 372.597656 0 L 372.597656 374.535156 L 2.402344 374.535156 Z M 2.402344 0 " fill-opacity="1" fill-rule="nonzero"/></g></g><path fill="#8c52ff" d="M 105.539062 298.726562 L 105.539062 75.539062 L 270.1875 75.539062 L 270.1875 298.726562 Z M 105.539062 298.726562 " fill-opacity="1" fill-rule="nonzero"/><g clip-path="url(#e669de834f)"><path fill="#8c52ff" d="M 275.308594 75.539062 L 275.308594 298.726562 C 275.308594 302.386719 273.113281 304.582031 270.1875 304.582031 L 105.539062 304.582031 C 101.878906 304.582031 99.683594 302.386719 99.683594 298.726562 L 99.683594 75.539062 C 99.683594 72.613281 101.878906 70.417969 105.539062 70.417969 L 270.1875 70.417969 C 273.113281 70.417969 275.308594 72.613281 275.308594 75.539062 Z M 264.332031 293.605469 L 264.332031 81.394531 L 110.660156 81.394531 L 110.660156 293.605469 Z M 264.332031 293.605469 " fill-opacity="1" fill-rule="nonzero"/></g></svg>